<?xml version="1.0" encoding="utf-8"?>
<!-- Generator: Adobe Illustrator 17.0.0, SVG Export Plug-In . SVG Version: 6.00 Build 0)  -->
<!DOCTYPE svg PUBLIC "-//W3C//DTD SVG 1.1//EN" "http://www.w3.org/Graphics/SVG/1.1/DTD/svg11.dtd">
<svg version="1.1" id="Layer_1" xmlns="http://www.w3.org/2000/svg" xmlns:xlink="http://www.w3.org/1999/xlink" x="0px" y="0px"
	 width="88px" height="22px" viewBox="0 0 88 22" enable-background="new 0 0 88 22" xml:space="preserve">
<g>
	<g>
		<g>
			<path fill="#F90094" d="M20.804,0.71c-3.905,0-4.649,2.299-5.814,3.979c0,0-3.168,4.825-4.373,6.662L8.018,0.71h-6.98
				L5.44,18.533c0.912,3.184,3.504,2.981,3.504,2.981c1.775,0,3.106-0.941,4.312-2.722L25.131,0.71
				C25.131,0.71,20.977,0.71,20.804,0.71z M63.949,0.71c-3.905,0-4.649,2.299-5.814,3.979c0,0-3.167,4.825-4.374,6.662L51.163,0.71
				h-6.981l4.403,17.823c0.911,3.184,3.504,2.981,3.504,2.981c1.775,0,3.105-0.941,4.312-2.722L68.276,0.71
				C68.276,0.71,64.122,0.71,63.949,0.71z M77.159,0.264C70.317,0.262,64.94,5.992,64.728,12.177
				c-0.187,5.426,3.451,9.563,9.689,9.564c6.881,0,12.258-5.729,12.471-11.952C87.073,4.401,83.436,0.265,77.159,0.264z
				 M75.061,15.39c-2.057,0-3.405-1.369-3.327-3.546c0.088-2.457,2.061-5.23,4.818-5.23c2.058,0,3.405,1.371,3.329,3.512
				C79.792,12.617,77.818,15.391,75.061,15.39z M34.318,0.259c-6.844-0.002-12.219,5.728-12.432,11.913
				c-0.187,5.427,3.452,9.563,9.689,9.564c4.946,0,9.115-2.962,11.148-6.937l-7.606,0c-0.825,0.703-1.834,1.148-2.964,1.148
				c-1.952,0-3.316-1.172-3.58-3.094l13.041,0.001c1.033,0,1.995-0.148,2.212-1.225c0.123-0.607,0.198-1.223,0.219-1.846
				C44.232,4.396,40.594,0.26,34.318,0.259z M36.709,8.644h-7.137c0.93-1.486,2.416-2.596,4.205-2.596
				c1.623,0,2.836,0.813,3.352,2.18C37.203,8.514,37.022,8.644,36.709,8.644z"/>
		</g>
	</g>
</g>
</svg>
